<svg width="16" height="16" viewBox="0 0 16 16" fill="" xmlns="http://www.w3.org/2000/svg">
<rect x="0.5" y="0.5" width="15" height="15" rx="4.5" stroke="#424961"/>
<path fill-rule="evenodd" clip-rule="evenodd" d="M9.72095 11.7757C9.99743 11.6221 10.0876 11.2314 9.90417 10.9819C9.85301 10.9123 9.06283 10.1957 8.14818 9.38944L6.48521 7.92352L8.14865 6.45744C9.06349 5.65108 9.85372 4.93436 9.90464 4.86476C9.96443 4.78304 9.99734 4.66546 9.99753 4.53283C9.99781 4.35037 9.97744 4.30924 9.81482 4.16369C9.64777 4.01422 9.60967 3.99992 9.37925 3.99992H9.12677L7.06341 5.84615L5 7.69234V7.90391C5 8.02908 5.0315 8.15808 5.07709 8.21976C5.18879 8.37096 8.76126 11.5793 8.97942 11.7244C9.19386 11.867 9.51632 11.8893 9.72095 11.7757Z" fill="#424961"/>
</svg>
