<svg width="16" height="16" viewBox="0 0 16 16" fill="none" xmlns="http://www.w3.org/2000/svg">
<rect x="0.5" y="0.5" width="15" height="15" rx="4.5" stroke="#424961"/>
<path fill-rule="evenodd" clip-rule="evenodd" d="M6.27905 4.07245C6.00257 4.22597 5.91237 4.61671 6.09583 4.86624C6.14699 4.93585 6.93717 5.65244 7.85182 6.45868L9.51479 7.92459L7.85135 9.39067C6.93651 10.197 6.14628 10.9138 6.09536 10.9834C6.03557 11.0651 6.00266 11.1827 6.00247 11.3153C6.00219 11.4977 6.02256 11.5389 6.18518 11.6844C6.35223 11.8339 6.39033 11.8482 6.62075 11.8482H6.87323L8.93659 10.002L11 8.15578V7.94421C11 7.81904 10.9685 7.69003 10.9229 7.62835C10.8112 7.47715 7.23874 4.26879 7.02058 4.12371C6.80614 3.98107 6.48368 3.9588 6.27905 4.07245Z" fill="#424961"/>
</svg>
